<svg width="55" height="55" viewBox="0 0 55 55" fill="none" xmlns="http://www.w3.org/2000/svg">
<path d="M33.1182 54.624C32.8496 54.6348 32.6777 54.6562 32.5059 54.6562C28.832 54.6562 25.1689 54.6455 21.4951 54.667C20.9795 54.667 20.8398 54.5273 20.8398 54.0117C20.8506 45.4609 20.8506 36.8994 20.8506 28.3486C20.8506 28.123 20.8506 27.8975 20.8506 27.6074C18.8525 27.6074 16.9082 27.6074 14.9316 27.6074C14.9316 24.5566 14.9316 21.5596 14.9316 18.4766C15.1357 18.4766 15.3291 18.4766 15.5117 18.4766C17.123 18.4766 18.7344 18.4658 20.3457 18.4873C20.7539 18.4873 20.8613 18.3691 20.8613 17.9717C20.8398 15.5762 20.8398 13.1699 20.8613 10.7744C20.8721 9.09863 21.1406 7.46582 21.9141 5.95117C23.0205 3.81347 24.7715 2.42773 26.9844 1.56836C28.7891 0.859371 30.6904 0.601559 32.6025 0.569332C35.7178 0.526364 38.833 0.547848 41.9482 0.537106C42.2383 0.537106 42.4746 0.526364 42.4746 0.934567C42.4639 3.88867 42.4639 6.84277 42.4639 9.79687C42.4639 9.8291 42.4531 9.86133 42.4102 10.001C42.2275 10.001 42.0234 10.001 41.8193 10.001C39.8857 10.001 37.9521 9.99023 36.0186 10.001C34.9014 10.001 33.999 10.4521 33.4297 11.4297C33.2578 11.7197 33.1504 12.0957 33.1504 12.4395C33.1182 14.2656 33.1504 16.0918 33.1289 17.918C33.1289 18.3477 33.2578 18.4658 33.6768 18.4658C36.3623 18.4443 39.0479 18.4551 41.7334 18.4551C41.9482 18.4551 42.1523 18.4551 42.5176 18.4551C42.1416 21.5273 41.7764 24.5352 41.4004 27.5752C38.6074 27.5752 35.8896 27.5752 33.1182 27.5752C33.1182 36.6094 33.1182 45.5898 33.1182 54.624Z" fill="black"/>
</svg>
