<svg width="55" height="55" viewBox="0 0 55 55" fill="none" xmlns="http://www.w3.org/2000/svg">
<path d="M4.84752 49.3029C4.84752 49.3029 26.409 49.3029 29.6182 49.3029C35.4489 49.3029 41.5444 43.1867 43.9909 39.5171C46.4373 35.8473 46.8919 28.1514 46.8919 28.1514V23.9212V19.6908L50.7697 15.4606L55 11.2303H50.7697H46.5394C46.5394 11.2303 46.1868 7 38.0788 7C29.9708 7 25.388 11.2303 25.388 15.4606C25.388 19.6908 25.388 15.4606 25.388 19.6908C25.388 23.9212 16.9274 19.6908 16.9274 19.6908L0.00626715 11.2302C0.00626715 11.2302 -0.34626 23.9211 4.23659 32.3815C8.81944 40.8424 12.6972 45.0725 12.6972 45.0725L4.84752 49.3029Z" fill="black"/>
</svg>
