<svg width="55" height="55" viewBox="0 0 55 55" fill="none" xmlns="http://www.w3.org/2000/svg">
<path d="M31.3775 36.15C31.3775 33.4525 29.815 32.1225 28.095 30.675L26.6875 29.5799C26.2575 29.2299 25.6725 28.76 25.6725 27.9C25.6725 27.04 26.26 26.4925 26.7675 25.985C28.4075 24.695 30.0501 23.3275 30.0501 20.435C30.0501 17.4625 28.1725 15.9 27.2751 15.1575H29.6976L32.1976 13.75H24.145C22.035 13.75 19.3775 14.0626 17.1475 15.9C15.4676 17.345 14.6475 19.34 14.6475 21.1375C14.6475 24.1851 16.9925 27.2751 21.135 27.2751C21.5276 27.2751 21.9551 27.2351 22.3875 27.1975C22.1925 27.6675 21.9975 28.0575 21.9975 28.7226C21.9975 29.9326 22.6225 30.6775 23.17 31.38C21.4125 31.4976 18.1275 31.6926 15.705 33.1775C13.3975 34.545 12.695 36.54 12.695 37.9475C12.695 40.84 15.4325 43.5374 21.1001 43.5374C27.82 43.5375 31.3775 39.8225 31.3775 36.15ZM22.9725 26.1825C19.61 26.1825 18.085 21.8425 18.085 19.225C18.085 18.2075 18.2801 17.155 18.945 16.3325C19.57 15.55 20.665 15.04 21.6825 15.04C24.9275 15.04 26.6075 19.42 26.6075 22.2325C26.6075 22.9375 26.5301 24.1875 25.63 25.0875C25.005 25.7125 23.95 26.18 22.9725 26.1825ZM23.0125 41.895C18.83 41.895 16.1324 39.9025 16.1324 37.1275C16.1324 34.3525 18.6349 33.4149 19.495 33.1025C21.1374 32.555 23.2475 32.4751 23.6 32.4751C23.99 32.4751 24.185 32.4751 24.4975 32.5151C27.47 34.6251 28.7575 35.6801 28.7575 37.675C28.7575 40.0975 26.765 41.895 23.0125 41.895Z" fill="black"/>
<path d="M31.73 28.5576H35.9625V32.7876H38.0775V28.5576H42.3076V26.4425H38.0775V22.2126H35.9625V26.4425H31.73V28.5576Z" fill="black"/>
<path d="M55 27.5C55 12.3125 42.6875 0 27.5 0C12.3125 0 0 12.3125 0 27.5C0 42.6875 12.3125 55 27.5 55C42.6875 55 55 42.6875 55 27.5ZM2.49998 27.5C2.49998 13.6925 13.6925 2.49998 27.5 2.49998C41.3075 2.49998 52.5 13.6925 52.5 27.5C52.5 41.3075 41.3075 52.5 27.5 52.5C13.6925 52.5 2.49998 41.3075 2.49998 27.5Z" fill="black"/>
</svg>
