<svg width="55" height="55" viewBox="0 0 55 55" fill="none" xmlns="http://www.w3.org/2000/svg">
<path d="M29.2188 0C14.5234 0 0 7.53745 0 19.7362C0 27.4941 5.67187 31.9019 9.10938 31.9019C10.5273 31.9019 11.3437 28.8605 11.3437 28.001C11.3437 26.9761 7.94922 24.7942 7.94922 20.5296C7.94922 11.6698 16.7148 5.38862 28.0586 5.38862C37.8125 5.38862 45.0313 9.65323 45.0313 17.4882C45.0313 23.3396 41.9805 34.3152 32.0977 34.3152C28.5313 34.3152 25.4805 32.3317 25.4805 29.4886C25.4805 25.3232 29.2617 21.29 29.2617 16.9923C29.2617 9.69731 15.8125 11.0197 15.8125 19.8354C15.8125 21.6867 16.1133 23.7364 17.1875 25.4224C15.2109 31.968 11.1719 41.7205 11.1719 48.4645C11.1719 50.5472 11.5586 52.5969 11.8164 54.6796C12.3034 55.0983 12.0599 55.0542 12.8047 54.8449C20.0234 47.2413 19.7656 45.7536 23.0313 35.8029C24.793 38.3815 29.3477 39.77 32.957 39.77C48.168 39.77 55 28.3646 55 18.0833C55 7.14074 42.7109 0 29.2188 0Z" fill="black"/>
</svg>
