<svg width="55" height="55" viewBox="0 0 55 55" fill="none" xmlns="http://www.w3.org/2000/svg">
<path d="M54.248 27.6074C54.248 31.3457 54.1728 35.0947 54.2695 38.833C54.4307 45.4502 50.2734 50.5635 44.9775 52.8408C42.8506 53.7539 40.6162 54.2373 38.3066 54.2373C31.0771 54.248 23.8369 54.3447 16.6074 54.2051C11.1611 54.0977 6.68164 51.8203 3.46973 47.3301C1.7832 44.9668 0.977539 42.2812 0.977539 39.3701C0.977539 31.668 0.977539 23.9766 0.977539 16.2744C0.977539 9.99023 4.03906 5.59667 9.47461 2.73925C11.8379 1.5039 14.4053 0.977532 17.0801 0.966789C24.0947 0.966789 31.1201 0.923821 38.1348 0.988274C43.581 1.03124 48.125 3.11523 51.4766 7.49804C53.3457 9.94726 54.248 12.7617 54.248 15.8555C54.248 19.7656 54.248 23.6865 54.248 27.6074ZM4.94141 27.6074C4.94141 31.5498 4.94141 35.4814 4.94141 39.4238C4.94141 41.1855 5.34961 42.8398 6.26269 44.333C8.6582 48.2539 12.2783 50.166 16.7686 50.2412C23.9766 50.3486 31.1953 50.2842 38.4141 50.2627C40.1865 50.2627 41.9053 49.8975 43.5059 49.1348C47.8672 47.0508 50.3057 43.7314 50.2842 38.7471C50.2412 31.1201 50.2734 23.4932 50.2734 15.8662C50.2734 13.707 49.6611 11.7305 48.3828 9.99023C45.9121 6.64941 42.4961 5.00585 38.4141 4.96288C31.2168 4.87695 24.0195 4.93066 16.8223 4.9414C15.2861 4.9414 13.8037 5.25292 12.3643 5.79003C8.41113 7.26171 4.7373 10.9893 4.90918 16.4785C5.03809 20.1953 4.94141 23.9014 4.94141 27.6074Z" fill="black"/>
<path d="M27.6719 38.9941C20.7431 38.9941 15.1572 33.4727 15.1465 26.5977C15.1357 19.8301 20.7646 14.2871 27.6504 14.2871C34.5576 14.2764 40.165 19.8086 40.1758 26.6299C40.1758 33.4404 34.5791 38.9834 27.6719 38.9941ZM27.6719 35.0195C32.3877 35.0195 36.2119 31.249 36.2012 26.6084C36.1904 22.0107 32.3662 18.251 27.6719 18.251C22.956 18.251 19.1103 22 19.1103 26.6299C19.1211 31.2705 22.956 35.0303 27.6719 35.0195Z" fill="black"/>
<path d="M41.626 10.5273C43.0762 10.5273 44.2578 11.7627 44.2578 13.2773C44.2471 14.792 43.0547 16.0166 41.6045 16.0059C40.1758 15.9951 39.0049 14.7705 39.0049 13.2881C38.9941 11.7734 40.1758 10.5273 41.626 10.5273Z" fill="black"/>
</svg>
