<svg width="55" height="55" viewBox="0 0 55 55" fill="none" xmlns="http://www.w3.org/2000/svg">
<path d="M27.8008 54.4844C12.9336 54.5488 0.708982 42.1738 1.06347 27.0596C1.39648 12.6758 13.3096 0.773437 28.1445 0.93457C42.8291 1.0957 54.9785 13.3203 54.5811 28.4453C54.2051 42.7861 42.3887 54.5596 27.8008 54.4844ZM4.31836 27.7363C4.43652 41.1748 15.2969 51.5088 28.123 51.3477C40.6162 51.1865 51.2939 41.0352 51.3047 27.7256C51.3154 14.2764 40.3584 3.91016 27.4893 4.08203C14.9961 4.25391 4.41504 14.4268 4.31836 27.7363Z" fill="black"/>
<path d="M27.6826 38.7041C24.0518 38.5859 20.4209 38.4785 16.79 38.3281C16.0166 38.2959 15.2217 38.1455 14.4805 37.9199C12.7188 37.3828 11.9453 35.9756 11.709 34.2998C11.4404 32.4092 11.2578 30.4971 11.2363 28.585C11.2148 26.0176 11.376 23.4394 11.5156 20.8613C11.5801 19.7549 11.8701 18.6592 12.4824 17.7139C13.3525 16.3496 14.7168 15.8877 16.2422 15.8017C23.3213 15.3935 30.4111 15.3721 37.4902 15.7158C38.2744 15.7588 39.0586 15.8125 39.8428 15.8984C41.6045 16.1133 42.8828 17.0371 43.3662 18.7558C43.7207 20.0342 43.9678 21.3769 44.0107 22.709C44.1074 25.5986 44.0859 28.499 44.0215 31.3994C43.9893 32.6025 43.7852 33.8164 43.4951 34.998C43.0117 36.9961 41.6367 38.0918 39.5957 38.2637C37.8447 38.4033 36.0938 38.5 34.3428 38.5322C32.1299 38.5752 29.9063 38.543 27.6826 38.543C27.6826 38.5859 27.6826 38.6504 27.6826 38.7041ZM33.1719 26.7158C30.1641 25.1475 27.2529 23.6328 24.3096 22.0967C24.3096 25.2119 24.3096 28.2197 24.3096 31.3135C27.2744 29.7773 30.1855 28.2734 33.1719 26.7158Z" fill="black"/>
</svg>
