<svg width="55" height="55" viewBox="0 0 55 55" fill="none" xmlns="http://www.w3.org/2000/svg">
<path d="M18.6377 54.6455C18.6377 54.3877 18.6377 54.1406 18.6377 53.8936C18.6377 42.3242 18.6377 30.7656 18.6377 19.1963C18.6377 18.874 18.6162 18.6162 19.0889 18.6162C22.5049 18.6377 25.9316 18.627 29.3477 18.627C29.4336 18.627 29.5195 18.6484 29.6592 18.6699C29.6592 20.1738 29.6592 21.6563 29.6592 23.1494C29.7021 23.1602 29.7344 23.1816 29.7773 23.1924C30.207 22.6338 30.6152 22.0537 31.0664 21.5059C32.3769 19.8945 34.0205 18.7129 35.9541 18.0039C37.0068 17.6172 38.1562 17.3809 39.2627 17.3271C40.7881 17.2627 42.3457 17.2842 43.8496 17.542C46.3203 17.9609 48.501 19.0566 50.3057 20.8506C52.0137 22.5371 53.1416 24.5674 53.7539 26.8555C54.0762 28.0693 54.2803 29.3154 54.4736 30.5508C54.6025 31.4102 54.667 32.291 54.667 33.1504C54.6777 40.1328 54.6777 47.1152 54.6777 54.0977C54.6777 54.2695 54.667 54.4414 54.6562 54.667C54.4521 54.667 54.2803 54.667 54.1084 54.667C50.8105 54.667 47.5234 54.6563 44.2256 54.6777C43.6777 54.6777 43.581 54.4951 43.581 54.001C43.5918 47.5772 43.6133 41.1426 43.5703 34.7188C43.5596 33.5908 43.4521 32.4199 43.1621 31.335C42.6357 29.4336 41.4326 28.0586 39.5205 27.3604C37.9092 26.7695 36.2764 26.6621 34.6221 27.0811C32.7959 27.543 31.5391 28.7568 30.5937 30.3574C29.8633 31.5928 29.7236 32.957 29.7129 34.3213C29.6699 40.8418 29.6914 47.3516 29.6914 53.8721C29.6914 54.1191 29.6914 54.3662 29.6914 54.6348C25.9853 54.6455 22.3437 54.6455 18.6377 54.6455Z" fill="black"/>
<path d="M11.7197 36.8027C11.7197 42.5283 11.709 48.2539 11.7305 53.9795C11.7305 54.4951 11.623 54.6885 11.0537 54.6777C7.77734 54.6455 4.50098 54.6455 1.22461 54.6777C0.6875 54.6777 0.569336 54.4951 0.569336 54.001C0.580078 42.4961 0.580078 30.9805 0.569336 19.4756C0.569336 19.0137 0.698242 18.8525 1.1709 18.8525C4.47949 18.874 7.78808 18.874 11.1074 18.8525C11.623 18.8525 11.7197 19.0459 11.7197 19.5078C11.7197 25.2764 11.7197 31.0449 11.7197 36.8027Z" fill="black"/>
<path d="M6.02637 0.51562C9.56055 0.429682 11.6768 2.99706 11.6875 6.14453C11.6982 9.36718 9.44238 11.7734 5.89746 11.7627C2.59961 11.7627 0.268554 9.39941 0.279296 6.05859C0.290038 2.93261 2.55664 0.408198 6.02637 0.51562Z" fill="black"/>
</svg>
